<mxfile host="app.diagrams.net" agent="Mozilla/5.0 (Macintosh; Intel Mac OS X 10_15_7) AppleWebKit/537.36 (KHTML, like Gecko) Chrome/131.0.0.0 Safari/537.36" version="24.8.9" pages="2">
  <diagram id="R2lEEEUBdFMjLlhIrx00" name="Page-1">
    <mxGraphModel dx="2014" dy="1121" grid="1" gridSize="10" guides="1" tooltips="1" connect="1" arrows="1" fold="1" page="1" pageScale="1" pageWidth="1100" pageHeight="850" math="0" shadow="0" extFonts="Permanent Marker^https://fonts.googleapis.com/css?family=Permanent+Marker">
      <root>
        <mxCell id="0" />
        <mxCell id="1" parent="0" />
        <mxCell id="r8zW64QsOeVXlScMGSI6-1" value="" style="edgeStyle=none;shape=connector;rounded=0;orthogonalLoop=1;jettySize=auto;html=1;strokeColor=default;align=center;verticalAlign=middle;fontFamily=Helvetica;fontSize=11;fontColor=default;labelBackgroundColor=default;endArrow=none;endFill=0;" edge="1" parent="1" source="r8zW64QsOeVXlScMGSI6-3" target="r8zW64QsOeVXlScMGSI6-11">
          <mxGeometry relative="1" as="geometry" />
        </mxCell>
        <mxCell id="r8zW64QsOeVXlScMGSI6-2" value="" style="edgeStyle=none;shape=connector;rounded=0;orthogonalLoop=1;jettySize=auto;html=1;strokeColor=default;align=center;verticalAlign=middle;fontFamily=Helvetica;fontSize=11;fontColor=default;labelBackgroundColor=default;endArrow=none;endFill=0;exitX=0;exitY=0.5;exitDx=0;exitDy=0;entryX=1;entryY=0.5;entryDx=0;entryDy=0;" edge="1" parent="1" source="r8zW64QsOeVXlScMGSI6-3" target="r8zW64QsOeVXlScMGSI6-39">
          <mxGeometry relative="1" as="geometry" />
        </mxCell>
        <mxCell id="r8zW64QsOeVXlScMGSI6-3" value="HOMELESS_PIT" style="whiteSpace=wrap;html=1;fillColor=#d5e8d4;strokeColor=#82b366;" vertex="1" parent="1">
          <mxGeometry x="367" y="262" width="120" height="90" as="geometry" />
        </mxCell>
        <mxCell id="r8zW64QsOeVXlScMGSI6-4" value="" style="edgeStyle=none;shape=connector;rounded=0;orthogonalLoop=1;jettySize=auto;html=1;strokeColor=default;align=center;verticalAlign=middle;fontFamily=Helvetica;fontSize=11;fontColor=default;labelBackgroundColor=default;endArrow=none;endFill=0;" edge="1" parent="1" source="r8zW64QsOeVXlScMGSI6-5" target="r8zW64QsOeVXlScMGSI6-33">
          <mxGeometry relative="1" as="geometry" />
        </mxCell>
        <mxCell id="r8zW64QsOeVXlScMGSI6-5" value="DRUG_OD_DEATHS" style="whiteSpace=wrap;html=1;fillColor=#f8cecc;strokeColor=#b85450;" vertex="1" parent="1">
          <mxGeometry x="367" y="592" width="120" height="90" as="geometry" />
        </mxCell>
        <mxCell id="r8zW64QsOeVXlScMGSI6-6" value="" style="edgeStyle=none;rounded=0;orthogonalLoop=1;jettySize=auto;html=1;endArrow=none;endFill=0;fillColor=#999999;" edge="1" parent="1" source="r8zW64QsOeVXlScMGSI6-8" target="r8zW64QsOeVXlScMGSI6-16">
          <mxGeometry relative="1" as="geometry" />
        </mxCell>
        <mxCell id="r8zW64QsOeVXlScMGSI6-7" value="" style="edgeStyle=none;rounded=0;orthogonalLoop=1;jettySize=auto;html=1;endArrow=none;endFill=0;fillColor=#999999;" edge="1" parent="1" source="r8zW64QsOeVXlScMGSI6-8" target="r8zW64QsOeVXlScMGSI6-13">
          <mxGeometry relative="1" as="geometry" />
        </mxCell>
        <mxCell id="r8zW64QsOeVXlScMGSI6-8" value="DNA&lt;div&gt;(Volume)&lt;/div&gt;&lt;div&gt;(Yield)&lt;/div&gt;&lt;div&gt;(Concentration)&lt;/div&gt;" style="whiteSpace=wrap;html=1;fillColor=#999999;strokeColor=#9673a6;" vertex="1" parent="1">
          <mxGeometry x="917" y="262" width="120" height="90" as="geometry" />
        </mxCell>
        <mxCell id="r8zW64QsOeVXlScMGSI6-9" value="" style="edgeStyle=none;shape=connector;rounded=0;orthogonalLoop=1;jettySize=auto;html=1;strokeColor=default;align=center;verticalAlign=middle;fontFamily=Helvetica;fontSize=11;fontColor=default;labelBackgroundColor=default;endArrow=none;endFill=0;" edge="1" parent="1" source="r8zW64QsOeVXlScMGSI6-10" target="r8zW64QsOeVXlScMGSI6-19">
          <mxGeometry relative="1" as="geometry" />
        </mxCell>
        <mxCell id="r8zW64QsOeVXlScMGSI6-10" value="SDOH_COUNTS" style="whiteSpace=wrap;html=1;fillColor=#dae8fc;strokeColor=#6c8ebf;" vertex="1" parent="1">
          <mxGeometry x="917" y="592" width="120" height="90" as="geometry" />
        </mxCell>
        <mxCell id="r8zW64QsOeVXlScMGSI6-11" value="Belongs" style="rhombus;whiteSpace=wrap;html=1;" vertex="1" parent="1">
          <mxGeometry x="347" y="432" width="160" height="80" as="geometry" />
        </mxCell>
        <mxCell id="r8zW64QsOeVXlScMGSI6-12" value="" style="edgeStyle=none;shape=connector;rounded=0;orthogonalLoop=1;jettySize=auto;html=1;strokeColor=default;align=center;verticalAlign=middle;fontFamily=Helvetica;fontSize=11;fontColor=default;labelBackgroundColor=default;endArrow=none;endFill=0;" edge="1" parent="1" source="r8zW64QsOeVXlScMGSI6-13" target="r8zW64QsOeVXlScMGSI6-10">
          <mxGeometry relative="1" as="geometry" />
        </mxCell>
        <mxCell id="r8zW64QsOeVXlScMGSI6-13" value="Processes" style="rhombus;whiteSpace=wrap;html=1;fillColor=#999999;" vertex="1" parent="1">
          <mxGeometry x="897" y="422" width="160" height="80" as="geometry" />
        </mxCell>
        <mxCell id="r8zW64QsOeVXlScMGSI6-14" value="" style="edgeStyle=none;shape=connector;rounded=0;orthogonalLoop=1;jettySize=auto;html=1;strokeColor=default;align=center;verticalAlign=middle;fontFamily=Helvetica;fontSize=11;fontColor=default;labelBackgroundColor=default;endArrow=none;endFill=0;" edge="1" parent="1" source="r8zW64QsOeVXlScMGSI6-15" target="r8zW64QsOeVXlScMGSI6-20">
          <mxGeometry relative="1" as="geometry" />
        </mxCell>
        <mxCell id="r8zW64QsOeVXlScMGSI6-15" value="Collects" style="rhombus;whiteSpace=wrap;html=1;" vertex="1" parent="1">
          <mxGeometry x="627" y="597" width="160" height="80" as="geometry" />
        </mxCell>
        <mxCell id="r8zW64QsOeVXlScMGSI6-16" value="&lt;u&gt;did&lt;/u&gt;" style="ellipse;whiteSpace=wrap;html=1;fillColor=#999999;strokeColor=#d6b656;" vertex="1" parent="1">
          <mxGeometry x="917" y="160" width="120" height="60" as="geometry" />
        </mxCell>
        <mxCell id="r8zW64QsOeVXlScMGSI6-17" value="start_dt" style="ellipse;whiteSpace=wrap;html=1;fillColor=#999999;" vertex="1" parent="1">
          <mxGeometry x="737" y="380" width="120" height="60" as="geometry" />
        </mxCell>
        <mxCell id="r8zW64QsOeVXlScMGSI6-18" value="end_dt" style="ellipse;whiteSpace=wrap;html=1;fillColor=#999999;" vertex="1" parent="1">
          <mxGeometry x="737" y="480" width="120" height="60" as="geometry" />
        </mxCell>
        <mxCell id="r8zW64QsOeVXlScMGSI6-19" value="&lt;u&gt;sid&lt;/u&gt;" style="ellipse;whiteSpace=wrap;html=1;fillColor=#fff2cc;strokeColor=#d6b656;" vertex="1" parent="1">
          <mxGeometry x="917" y="730" width="120" height="60" as="geometry" />
        </mxCell>
        <mxCell id="r8zW64QsOeVXlScMGSI6-20" value="coll_dt" style="ellipse;whiteSpace=wrap;html=1;" vertex="1" parent="1">
          <mxGeometry x="647" y="730" width="120" height="60" as="geometry" />
        </mxCell>
        <mxCell id="r8zW64QsOeVXlScMGSI6-21" value="" style="endArrow=none;html=1;rounded=0;strokeColor=default;align=center;verticalAlign=middle;fontFamily=Helvetica;fontSize=11;fontColor=default;labelBackgroundColor=default;edgeStyle=none;exitX=1;exitY=0.5;exitDx=0;exitDy=0;entryX=0;entryY=0.5;entryDx=0;entryDy=0;" edge="1" parent="1" source="r8zW64QsOeVXlScMGSI6-15" target="r8zW64QsOeVXlScMGSI6-10">
          <mxGeometry width="50" height="50" relative="1" as="geometry">
            <mxPoint x="867" y="682" as="sourcePoint" />
            <mxPoint x="917" y="632" as="targetPoint" />
          </mxGeometry>
        </mxCell>
        <mxCell id="r8zW64QsOeVXlScMGSI6-22" value="" style="edgeStyle=none;orthogonalLoop=1;jettySize=auto;html=1;rounded=0;strokeColor=default;align=center;verticalAlign=middle;fontFamily=Helvetica;fontSize=11;fontColor=default;labelBackgroundColor=default;endArrow=none;endFill=0;exitX=1;exitY=0.5;exitDx=0;exitDy=0;" edge="1" parent="1" source="r8zW64QsOeVXlScMGSI6-5">
          <mxGeometry width="80" relative="1" as="geometry">
            <mxPoint x="547" y="636.5" as="sourcePoint" />
            <mxPoint x="627" y="636.5" as="targetPoint" />
            <Array as="points" />
          </mxGeometry>
        </mxCell>
        <mxCell id="r8zW64QsOeVXlScMGSI6-23" value="" style="endArrow=none;html=1;rounded=0;strokeColor=default;align=center;verticalAlign=middle;fontFamily=Helvetica;fontSize=11;fontColor=default;labelBackgroundColor=default;edgeStyle=none;exitX=1;exitY=0.5;exitDx=0;exitDy=0;fillColor=#999999;" edge="1" parent="1" source="r8zW64QsOeVXlScMGSI6-18">
          <mxGeometry width="50" height="50" relative="1" as="geometry">
            <mxPoint x="847" y="512" as="sourcePoint" />
            <mxPoint x="897" y="462" as="targetPoint" />
          </mxGeometry>
        </mxCell>
        <mxCell id="r8zW64QsOeVXlScMGSI6-24" value="" style="endArrow=none;html=1;rounded=0;strokeColor=default;align=center;verticalAlign=middle;fontFamily=Helvetica;fontSize=11;fontColor=default;labelBackgroundColor=default;edgeStyle=none;exitX=1;exitY=0.5;exitDx=0;exitDy=0;fillColor=#999999;" edge="1" parent="1" source="r8zW64QsOeVXlScMGSI6-17">
          <mxGeometry width="50" height="50" relative="1" as="geometry">
            <mxPoint x="857" y="512" as="sourcePoint" />
            <mxPoint x="897" y="464" as="targetPoint" />
          </mxGeometry>
        </mxCell>
        <mxCell id="r8zW64QsOeVXlScMGSI6-25" value="M" style="text;html=1;align=center;verticalAlign=middle;resizable=0;points=[];autosize=1;strokeColor=none;fillColor=#999999;fontFamily=Helvetica;fontSize=11;fontColor=default;labelBackgroundColor=default;" vertex="1" parent="1">
          <mxGeometry x="942" y="348" width="30" height="30" as="geometry" />
        </mxCell>
        <mxCell id="r8zW64QsOeVXlScMGSI6-26" value="1" style="text;html=1;align=center;verticalAlign=middle;resizable=0;points=[];autosize=1;strokeColor=none;fillColor=none;fontFamily=Helvetica;fontSize=11;fontColor=default;labelBackgroundColor=default;" vertex="1" parent="1">
          <mxGeometry x="942" y="568" width="30" height="30" as="geometry" />
        </mxCell>
        <mxCell id="r8zW64QsOeVXlScMGSI6-27" value="M" style="text;html=1;align=center;verticalAlign=middle;resizable=0;points=[];autosize=1;strokeColor=none;fillColor=none;fontFamily=Helvetica;fontSize=11;fontColor=default;labelBackgroundColor=default;" vertex="1" parent="1">
          <mxGeometry x="832" y="608" width="30" height="30" as="geometry" />
        </mxCell>
        <mxCell id="r8zW64QsOeVXlScMGSI6-28" value="1" style="text;html=1;align=center;verticalAlign=middle;resizable=0;points=[];autosize=1;strokeColor=none;fillColor=none;fontFamily=Helvetica;fontSize=11;fontColor=default;labelBackgroundColor=default;" vertex="1" parent="1">
          <mxGeometry x="532" y="608" width="30" height="30" as="geometry" />
        </mxCell>
        <mxCell id="r8zW64QsOeVXlScMGSI6-29" value="" style="edgeStyle=none;shape=connector;rounded=0;orthogonalLoop=1;jettySize=auto;html=1;strokeColor=default;align=center;verticalAlign=middle;fontFamily=Helvetica;fontSize=11;fontColor=default;labelBackgroundColor=default;endArrow=none;endFill=0;exitX=0.5;exitY=1;exitDx=0;exitDy=0;entryX=0.5;entryY=0;entryDx=0;entryDy=0;" edge="1" parent="1" source="r8zW64QsOeVXlScMGSI6-30" target="r8zW64QsOeVXlScMGSI6-3">
          <mxGeometry relative="1" as="geometry" />
        </mxCell>
        <mxCell id="r8zW64QsOeVXlScMGSI6-30" value="&lt;u&gt;HLSS_COC_NUMBER&lt;/u&gt;" style="ellipse;whiteSpace=wrap;html=1;fillColor=#fff2cc;strokeColor=#d6b656;" vertex="1" parent="1">
          <mxGeometry x="280" y="130" width="137" height="60" as="geometry" />
        </mxCell>
        <mxCell id="r8zW64QsOeVXlScMGSI6-31" value="" style="edgeStyle=none;shape=connector;rounded=0;orthogonalLoop=1;jettySize=auto;html=1;strokeColor=default;align=center;verticalAlign=middle;fontFamily=Helvetica;fontSize=11;fontColor=default;labelBackgroundColor=default;endArrow=none;endFill=0;" edge="1" parent="1" source="r8zW64QsOeVXlScMGSI6-32" target="r8zW64QsOeVXlScMGSI6-5">
          <mxGeometry relative="1" as="geometry" />
        </mxCell>
        <mxCell id="r8zW64QsOeVXlScMGSI6-32" value="&lt;u&gt;pid&lt;/u&gt;" style="ellipse;whiteSpace=wrap;html=1;fillColor=#fff2cc;strokeColor=#d6b656;" vertex="1" parent="1">
          <mxGeometry x="197" y="607" width="120" height="60" as="geometry" />
        </mxCell>
        <mxCell id="r8zW64QsOeVXlScMGSI6-33" value="&lt;span style=&quot;background-color: rgb(255, 230, 204);&quot;&gt;race&lt;/span&gt;" style="ellipse;shape=doubleEllipse;margin=3;whiteSpace=wrap;html=1;align=center;fontFamily=Helvetica;fontSize=11;labelBackgroundColor=default;fillColor=#ffe6cc;strokeColor=#d79b00;" vertex="1" parent="1">
          <mxGeometry x="367" y="730" width="120" height="60" as="geometry" />
        </mxCell>
        <mxCell id="r8zW64QsOeVXlScMGSI6-34" value="" style="shape=link;html=1;rounded=0;strokeColor=default;align=center;verticalAlign=middle;fontFamily=Helvetica;fontSize=11;fontColor=default;labelBackgroundColor=default;edgeStyle=none;endArrow=none;endFill=0;exitX=0.5;exitY=1;exitDx=0;exitDy=0;entryX=0.5;entryY=0;entryDx=0;entryDy=0;" edge="1" parent="1" source="r8zW64QsOeVXlScMGSI6-11" target="r8zW64QsOeVXlScMGSI6-5">
          <mxGeometry relative="1" as="geometry">
            <mxPoint x="347" y="560" as="sourcePoint" />
            <mxPoint x="427" y="580" as="targetPoint" />
          </mxGeometry>
        </mxCell>
        <mxCell id="r8zW64QsOeVXlScMGSI6-35" value="M&amp;nbsp;" style="resizable=0;html=1;whiteSpace=wrap;align=right;verticalAlign=bottom;fontFamily=Helvetica;fontSize=11;fontColor=default;labelBackgroundColor=default;" connectable="0" vertex="1" parent="r8zW64QsOeVXlScMGSI6-34">
          <mxGeometry x="1" relative="1" as="geometry">
            <mxPoint x="25" y="-32" as="offset" />
          </mxGeometry>
        </mxCell>
        <mxCell id="r8zW64QsOeVXlScMGSI6-36" style="edgeStyle=none;shape=connector;rounded=0;orthogonalLoop=1;jettySize=auto;html=1;entryX=0.5;entryY=0;entryDx=0;entryDy=0;strokeColor=default;align=center;verticalAlign=middle;fontFamily=Helvetica;fontSize=11;fontColor=default;labelBackgroundColor=default;endArrow=none;endFill=0;" edge="1" parent="1" source="r8zW64QsOeVXlScMGSI6-5" target="r8zW64QsOeVXlScMGSI6-5">
          <mxGeometry relative="1" as="geometry" />
        </mxCell>
        <mxCell id="r8zW64QsOeVXlScMGSI6-37" value="1" style="text;html=1;align=center;verticalAlign=middle;resizable=0;points=[];autosize=1;strokeColor=none;fillColor=none;fontFamily=Helvetica;fontSize=11;fontColor=default;labelBackgroundColor=default;" vertex="1" parent="1">
          <mxGeometry x="422" y="378" width="30" height="30" as="geometry" />
        </mxCell>
        <mxCell id="r8zW64QsOeVXlScMGSI6-39" value="OVERALL_HLSS" style="ellipse;whiteSpace=wrap;html=1;fillColor=#fff2cc;strokeColor=#d6b656;" vertex="1" parent="1">
          <mxGeometry x="140" y="160" width="120" height="60" as="geometry" />
        </mxCell>
        <mxCell id="r8zW64QsOeVXlScMGSI6-47" value="&lt;font style=&quot;font-size: 36px;&quot;&gt;Knippenberg (u0243722) Database Project: ER Model&lt;/font&gt;" style="text;html=1;align=center;verticalAlign=middle;resizable=0;points=[];autosize=1;strokeColor=none;fillColor=none;fontFamily=Helvetica;fontSize=12;fontColor=default;" vertex="1" parent="1">
          <mxGeometry x="290" y="40" width="890" height="60" as="geometry" />
        </mxCell>
        <mxCell id="r8zW64QsOeVXlScMGSI6-50" value="" style="edgeStyle=none;shape=connector;rounded=0;orthogonalLoop=1;jettySize=auto;html=1;strokeColor=default;align=center;verticalAlign=middle;fontFamily=Helvetica;fontSize=11;fontColor=default;labelBackgroundColor=default;endArrow=none;endFill=0;exitX=0.5;exitY=1;exitDx=0;exitDy=0;entryX=0.5;entryY=0;entryDx=0;entryDy=0;" edge="1" parent="1" source="r8zW64QsOeVXlScMGSI6-51">
          <mxGeometry relative="1" as="geometry">
            <mxPoint x="427" y="262" as="targetPoint" />
          </mxGeometry>
        </mxCell>
        <mxCell id="r8zW64QsOeVXlScMGSI6-51" value="&lt;span&gt;HLSS_COC_&lt;/span&gt;&lt;div&gt;&lt;span&gt;CATEGORY&lt;/span&gt;&lt;/div&gt;" style="ellipse;whiteSpace=wrap;html=1;fillColor=#fff2cc;strokeColor=#d6b656;flipH=1;fontStyle=0" vertex="1" parent="1">
          <mxGeometry x="460" y="130" width="137" height="60" as="geometry" />
        </mxCell>
        <mxCell id="r8zW64QsOeVXlScMGSI6-52" value="" style="edgeStyle=none;shape=connector;rounded=0;orthogonalLoop=1;jettySize=auto;html=1;strokeColor=default;align=center;verticalAlign=middle;fontFamily=Helvetica;fontSize=11;fontColor=default;labelBackgroundColor=default;endArrow=none;endFill=0;entryX=1;entryY=0.5;entryDx=0;entryDy=0;exitX=0;exitY=0.5;exitDx=0;exitDy=0;" edge="1" parent="1" target="r8zW64QsOeVXlScMGSI6-53" source="r8zW64QsOeVXlScMGSI6-3">
          <mxGeometry relative="1" as="geometry">
            <mxPoint x="360" y="300" as="sourcePoint" />
          </mxGeometry>
        </mxCell>
        <mxCell id="r8zW64QsOeVXlScMGSI6-53" value="Represents 7 attributes for OVERALL_HLSS_AGE(S)&lt;div&gt;(see DDL Statements)&lt;/div&gt;" style="ellipse;whiteSpace=wrap;html=1;fillColor=#fff2cc;strokeColor=#d6b656;" vertex="1" parent="1">
          <mxGeometry x="80" y="230" width="180" height="70" as="geometry" />
        </mxCell>
        <mxCell id="r8zW64QsOeVXlScMGSI6-54" value="" style="edgeStyle=none;shape=connector;rounded=0;orthogonalLoop=1;jettySize=auto;html=1;strokeColor=default;align=center;verticalAlign=middle;fontFamily=Helvetica;fontSize=11;fontColor=default;labelBackgroundColor=default;endArrow=none;endFill=0;entryX=1;entryY=0.5;entryDx=0;entryDy=0;exitX=0;exitY=0.5;exitDx=0;exitDy=0;" edge="1" parent="1" target="r8zW64QsOeVXlScMGSI6-55" source="r8zW64QsOeVXlScMGSI6-3">
          <mxGeometry relative="1" as="geometry">
            <mxPoint x="367" y="317" as="sourcePoint" />
          </mxGeometry>
        </mxCell>
        <mxCell id="r8zW64QsOeVXlScMGSI6-55" value="Represents 5 attributes for OVERALL_HLSS_ GENDER(S)&lt;div&gt;(see DDL Statements)&lt;/div&gt;" style="ellipse;whiteSpace=wrap;html=1;fillColor=#fff2cc;strokeColor=#d6b656;" vertex="1" parent="1">
          <mxGeometry x="40" y="309" width="190" height="71" as="geometry" />
        </mxCell>
        <mxCell id="r8zW64QsOeVXlScMGSI6-56" value="" style="edgeStyle=none;shape=connector;rounded=0;orthogonalLoop=1;jettySize=auto;html=1;strokeColor=default;align=center;verticalAlign=middle;fontFamily=Helvetica;fontSize=11;fontColor=default;labelBackgroundColor=default;endArrow=none;endFill=0;entryX=0.5;entryY=0;entryDx=0;entryDy=0;exitX=0;exitY=0.5;exitDx=0;exitDy=0;" edge="1" parent="1" target="r8zW64QsOeVXlScMGSI6-57" source="r8zW64QsOeVXlScMGSI6-3">
          <mxGeometry relative="1" as="geometry">
            <mxPoint x="377" y="317" as="sourcePoint" />
          </mxGeometry>
        </mxCell>
        <mxCell id="r8zW64QsOeVXlScMGSI6-57" value="Represents 8 attributes for OVERALL_HLSS_ RACE/ETHNICITY(S)&lt;div&gt;(see DDL Statements)&lt;/div&gt;" style="ellipse;whiteSpace=wrap;html=1;fillColor=#fff2cc;strokeColor=#d6b656;" vertex="1" parent="1">
          <mxGeometry x="140" y="390" width="190" height="80" as="geometry" />
        </mxCell>
        <mxCell id="r8zW64QsOeVXlScMGSI6-58" value="" style="edgeStyle=none;shape=connector;rounded=0;orthogonalLoop=1;jettySize=auto;html=1;strokeColor=default;align=center;verticalAlign=middle;fontFamily=Helvetica;fontSize=11;fontColor=default;labelBackgroundColor=default;endArrow=none;endFill=0;exitX=0;exitY=0.5;exitDx=0;exitDy=0;entryX=0.5;entryY=0;entryDx=0;entryDy=0;" edge="1" parent="1" source="r8zW64QsOeVXlScMGSI6-59">
          <mxGeometry relative="1" as="geometry">
            <mxPoint x="487" y="309" as="targetPoint" />
          </mxGeometry>
        </mxCell>
        <mxCell id="r8zW64QsOeVXlScMGSI6-59" value="&lt;span&gt;SHELTERED_HLSS&lt;/span&gt;" style="ellipse;whiteSpace=wrap;html=1;fillColor=#fff2cc;strokeColor=#d6b656;fontStyle=0" vertex="1" parent="1">
          <mxGeometry x="540" y="230" width="137" height="60" as="geometry" />
        </mxCell>
        <mxCell id="r8zW64QsOeVXlScMGSI6-60" value="" style="edgeStyle=none;shape=connector;rounded=0;orthogonalLoop=1;jettySize=auto;html=1;strokeColor=default;align=center;verticalAlign=middle;fontFamily=Helvetica;fontSize=11;fontColor=default;labelBackgroundColor=default;endArrow=none;endFill=0;exitX=0.5;exitY=1;exitDx=0;exitDy=0;entryX=0.5;entryY=0;entryDx=0;entryDy=0;" edge="1" parent="1" source="r8zW64QsOeVXlScMGSI6-61">
          <mxGeometry relative="1" as="geometry">
            <mxPoint x="487" y="309" as="targetPoint" />
          </mxGeometry>
        </mxCell>
        <mxCell id="r8zW64QsOeVXlScMGSI6-61" value="UNSHELTERED_HLSS" style="ellipse;whiteSpace=wrap;html=1;fillColor=#fff2cc;strokeColor=#d6b656;flipH=1;fontStyle=0" vertex="1" parent="1">
          <mxGeometry x="540" y="300" width="137" height="60" as="geometry" />
        </mxCell>
      </root>
    </mxGraphModel>
  </diagram>
  <diagram name="Page-2" id="z7tUFnOthgVsbIWcvHs2">
    <mxGraphModel grid="1" page="1" gridSize="10" guides="1" tooltips="1" connect="1" arrows="1" fold="1" pageScale="1" pageWidth="1100" pageHeight="850" math="0" shadow="0">
      <root>
        <mxCell id="0" />
        <mxCell id="1" parent="0" />
        <mxCell id="3H5cxypQf1GMWOECVnry-1" value="&lt;u&gt;CID&lt;/u&gt;" style="whiteSpace=wrap;html=1;fillColor=#d5e8d4;strokeColor=#82b366;" vertex="1" parent="1">
          <mxGeometry x="150" y="80" width="100" height="70" as="geometry" />
        </mxCell>
        <mxCell id="3H5cxypQf1GMWOECVnry-5" value="&lt;i&gt;Customer Relation:&lt;/i&gt;" style="text;html=1;align=left;verticalAlign=middle;resizable=0;points=[];autosize=1;strokeColor=none;fillColor=none;" vertex="1" parent="1">
          <mxGeometry x="10" y="80" width="130" height="30" as="geometry" />
        </mxCell>
        <mxCell id="RF5sf2O6u_hIaxeOEv9r-1" value="Name" style="whiteSpace=wrap;html=1;fillColor=#d5e8d4;strokeColor=#82b366;" vertex="1" parent="1">
          <mxGeometry x="250" y="80" width="100" height="70" as="geometry" />
        </mxCell>
        <mxCell id="RF5sf2O6u_hIaxeOEv9r-2" value="Phone" style="whiteSpace=wrap;html=1;fillColor=#d5e8d4;strokeColor=#82b366;" vertex="1" parent="1">
          <mxGeometry x="350" y="80" width="100" height="70" as="geometry" />
        </mxCell>
        <mxCell id="RF5sf2O6u_hIaxeOEv9r-3" value="Street" style="whiteSpace=wrap;html=1;fillColor=#d5e8d4;strokeColor=#82b366;" vertex="1" parent="1">
          <mxGeometry x="450" y="80" width="100" height="70" as="geometry" />
        </mxCell>
        <mxCell id="RF5sf2O6u_hIaxeOEv9r-4" value="City" style="whiteSpace=wrap;html=1;fillColor=#d5e8d4;strokeColor=#82b366;" vertex="1" parent="1">
          <mxGeometry x="550" y="80" width="100" height="70" as="geometry" />
        </mxCell>
        <mxCell id="RF5sf2O6u_hIaxeOEv9r-5" value="State" style="whiteSpace=wrap;html=1;fillColor=#d5e8d4;strokeColor=#82b366;" vertex="1" parent="1">
          <mxGeometry x="650" y="80" width="100" height="70" as="geometry" />
        </mxCell>
        <mxCell id="RF5sf2O6u_hIaxeOEv9r-6" value="Zip" style="whiteSpace=wrap;html=1;fillColor=#d5e8d4;strokeColor=#82b366;" vertex="1" parent="1">
          <mxGeometry x="750" y="80" width="100" height="70" as="geometry" />
        </mxCell>
        <mxCell id="zBqM1XoyQHx3GSPtkHMs-1" value="&lt;u&gt;PID&lt;/u&gt;" style="whiteSpace=wrap;html=1;fillColor=#f8cecc;strokeColor=#b85450;" vertex="1" parent="1">
          <mxGeometry x="150" y="242" width="100" height="70" as="geometry" />
        </mxCell>
        <mxCell id="zBqM1XoyQHx3GSPtkHMs-2" value="&lt;i&gt;Participant Relation:&lt;/i&gt;" style="text;html=1;align=left;verticalAlign=middle;resizable=0;points=[];autosize=1;strokeColor=none;fillColor=none;" vertex="1" parent="1">
          <mxGeometry x="10" y="242" width="130" height="30" as="geometry" />
        </mxCell>
        <mxCell id="zBqM1XoyQHx3GSPtkHMs-3" value="Sex" style="whiteSpace=wrap;html=1;fillColor=#f8cecc;strokeColor=#b85450;" vertex="1" parent="1">
          <mxGeometry x="250" y="242" width="100" height="70" as="geometry" />
        </mxCell>
        <mxCell id="zBqM1XoyQHx3GSPtkHMs-4" value="Age" style="whiteSpace=wrap;html=1;fillColor=#f8cecc;strokeColor=#b85450;" vertex="1" parent="1">
          <mxGeometry x="350" y="242" width="100" height="70" as="geometry" />
        </mxCell>
        <mxCell id="zBqM1XoyQHx3GSPtkHMs-5" value="Gender" style="whiteSpace=wrap;html=1;fillColor=#f8cecc;strokeColor=#b85450;" vertex="1" parent="1">
          <mxGeometry x="450" y="242" width="100" height="70" as="geometry" />
        </mxCell>
        <mxCell id="jIpY3NpH2xjITqanonan-1" value="&lt;u&gt;SID&lt;/u&gt;" style="whiteSpace=wrap;html=1;fillColor=#dae8fc;strokeColor=#6c8ebf;" vertex="1" parent="1">
          <mxGeometry x="150" y="410" width="100" height="70" as="geometry" />
        </mxCell>
        <mxCell id="jIpY3NpH2xjITqanonan-2" value="&lt;i&gt;Sample Relation:&lt;/i&gt;" style="text;html=1;align=left;verticalAlign=middle;resizable=0;points=[];autosize=1;strokeColor=none;fillColor=none;" vertex="1" parent="1">
          <mxGeometry x="10" y="410" width="110" height="30" as="geometry" />
        </mxCell>
        <mxCell id="jIpY3NpH2xjITqanonan-3" value="Type" style="whiteSpace=wrap;html=1;fillColor=#dae8fc;strokeColor=#6c8ebf;" vertex="1" parent="1">
          <mxGeometry x="250" y="410" width="100" height="70" as="geometry" />
        </mxCell>
        <mxCell id="jIpY3NpH2xjITqanonan-4" value="Quantity" style="whiteSpace=wrap;html=1;fillColor=#dae8fc;strokeColor=#6c8ebf;" vertex="1" parent="1">
          <mxGeometry x="350" y="410" width="100" height="70" as="geometry" />
        </mxCell>
        <mxCell id="jIpY3NpH2xjITqanonan-5" value="Uom" style="whiteSpace=wrap;html=1;fillColor=#dae8fc;strokeColor=#6c8ebf;" vertex="1" parent="1">
          <mxGeometry x="450" y="410" width="100" height="70" as="geometry" />
        </mxCell>
        <mxCell id="XT0__YVhD0DchKAWnxMX-1" value="&lt;u&gt;DID&lt;/u&gt;" style="whiteSpace=wrap;html=1;fillColor=#e1d5e7;strokeColor=#9673a6;" vertex="1" parent="1">
          <mxGeometry x="150" y="571" width="100" height="70" as="geometry" />
        </mxCell>
        <mxCell id="XT0__YVhD0DchKAWnxMX-2" value="&lt;i&gt;DNA Relation:&lt;/i&gt;" style="text;html=1;align=left;verticalAlign=middle;resizable=0;points=[];autosize=1;strokeColor=none;fillColor=none;" vertex="1" parent="1">
          <mxGeometry x="10" y="571" width="100" height="30" as="geometry" />
        </mxCell>
        <mxCell id="XT0__YVhD0DchKAWnxMX-3" value="Volume" style="whiteSpace=wrap;html=1;fillColor=#e1d5e7;strokeColor=#9673a6;" vertex="1" parent="1">
          <mxGeometry x="250" y="571" width="100" height="70" as="geometry" />
        </mxCell>
        <mxCell id="XT0__YVhD0DchKAWnxMX-4" value="Yield" style="whiteSpace=wrap;html=1;fillColor=#e1d5e7;strokeColor=#9673a6;" vertex="1" parent="1">
          <mxGeometry x="350" y="571" width="100" height="70" as="geometry" />
        </mxCell>
        <mxCell id="XT0__YVhD0DchKAWnxMX-5" value="Concentration" style="whiteSpace=wrap;html=1;fillColor=#e1d5e7;strokeColor=#9673a6;" vertex="1" parent="1">
          <mxGeometry x="450" y="571" width="100" height="70" as="geometry" />
        </mxCell>
        <mxCell id="K57cMDRjv4ORrzbnJUE_-1" value="* No weak entity types, no M-M relationships, no 1-1 relationships,&lt;br&gt;&amp;nbsp; &amp;nbsp; no degrees &amp;gt;2, no super-/sub-types&lt;div&gt;CID (1) becomes foreign key of PID (M; no extra attributes)&lt;/div&gt;&lt;div&gt;PID (1) becomes foreign key of SID (M;&amp;nbsp;&lt;span style=&quot;text-align: center; text-wrap: wrap; background-color: initial;&quot;&gt;coll_dt attribute&lt;/span&gt;&lt;span style=&quot;background-color: initial;&quot;&gt;)&lt;/span&gt;&lt;/div&gt;&lt;div&gt;SID (1) becomes foreign key of DID (M; start_dt, end_dt attributes)&lt;br&gt;&lt;/div&gt;" style="text;html=1;align=left;verticalAlign=middle;resizable=1;points=[];autosize=1;strokeColor=none;fillColor=none;movable=1;rotatable=1;deletable=1;editable=1;locked=0;connectable=1;" vertex="1" parent="1">
          <mxGeometry x="710" y="222" width="380" height="90" as="geometry" />
        </mxCell>
        <mxCell id="BfoKXns0D2MrgNcE-d5W-1" value="CID" style="whiteSpace=wrap;html=1;fillColor=#f8cecc;strokeColor=#b85450;" vertex="1" parent="1">
          <mxGeometry x="550" y="242" width="100" height="70" as="geometry" />
        </mxCell>
        <mxCell id="BfoKXns0D2MrgNcE-d5W-2" value="" style="endArrow=classic;html=1;rounded=0;fontFamily=Helvetica;fontSize=12;fontColor=default;autosize=1;resizable=0;entryX=0.5;entryY=1;entryDx=0;entryDy=0;exitX=0.5;exitY=0;exitDx=0;exitDy=0;" edge="1" parent="1" source="BfoKXns0D2MrgNcE-d5W-1" target="3H5cxypQf1GMWOECVnry-1">
          <mxGeometry width="50" height="50" relative="1" as="geometry">
            <mxPoint x="600" y="240" as="sourcePoint" />
            <mxPoint x="650" y="190" as="targetPoint" />
          </mxGeometry>
        </mxCell>
        <mxCell id="BfoKXns0D2MrgNcE-d5W-3" value="&lt;span&gt;PID&lt;/span&gt;" style="whiteSpace=wrap;html=1;fillColor=#dae8fc;strokeColor=#6c8ebf;fontStyle=0" vertex="1" parent="1">
          <mxGeometry x="550" y="410" width="100" height="70" as="geometry" />
        </mxCell>
        <mxCell id="BfoKXns0D2MrgNcE-d5W-4" value="" style="endArrow=classic;html=1;rounded=0;fontFamily=Helvetica;fontSize=12;fontColor=default;autosize=1;resizable=0;entryX=0.5;entryY=1;entryDx=0;entryDy=0;exitX=0.5;exitY=0;exitDx=0;exitDy=0;" edge="1" parent="1" source="BfoKXns0D2MrgNcE-d5W-3" target="zBqM1XoyQHx3GSPtkHMs-1">
          <mxGeometry width="50" height="50" relative="1" as="geometry">
            <mxPoint x="600" y="443" as="sourcePoint" />
            <mxPoint x="200" y="351" as="targetPoint" />
          </mxGeometry>
        </mxCell>
        <mxCell id="BfoKXns0D2MrgNcE-d5W-5" value="SID" style="whiteSpace=wrap;html=1;fillColor=#e1d5e7;strokeColor=#9673a6;" vertex="1" parent="1">
          <mxGeometry x="550" y="571" width="100" height="70" as="geometry" />
        </mxCell>
        <mxCell id="BfoKXns0D2MrgNcE-d5W-6" value="" style="endArrow=classic;html=1;rounded=0;fontFamily=Helvetica;fontSize=12;fontColor=default;autosize=1;resizable=0;entryX=0.5;entryY=1;entryDx=0;entryDy=0;exitX=0.5;exitY=0;exitDx=0;exitDy=0;" edge="1" parent="1" source="BfoKXns0D2MrgNcE-d5W-5" target="jIpY3NpH2xjITqanonan-1">
          <mxGeometry width="50" height="50" relative="1" as="geometry">
            <mxPoint x="600" y="604" as="sourcePoint" />
            <mxPoint x="200" y="504" as="targetPoint" />
          </mxGeometry>
        </mxCell>
        <mxCell id="BfoKXns0D2MrgNcE-d5W-7" value="coll_dt" style="whiteSpace=wrap;html=1;fillColor=#dae8fc;strokeColor=#6c8ebf;fontStyle=0" vertex="1" parent="1">
          <mxGeometry x="650" y="410" width="100" height="70" as="geometry" />
        </mxCell>
        <mxCell id="BfoKXns0D2MrgNcE-d5W-8" value="start_dt" style="whiteSpace=wrap;html=1;fillColor=#e1d5e7;strokeColor=#9673a6;" vertex="1" parent="1">
          <mxGeometry x="650" y="571" width="100" height="70" as="geometry" />
        </mxCell>
        <mxCell id="BfoKXns0D2MrgNcE-d5W-9" value="end_dt" style="whiteSpace=wrap;html=1;fillColor=#e1d5e7;strokeColor=#9673a6;" vertex="1" parent="1">
          <mxGeometry x="750" y="571" width="100" height="70" as="geometry" />
        </mxCell>
        <mxCell id="Ix6v9zOojB1Yn2aA4ddo-1" value="&lt;span&gt;&lt;u&gt;Race (t)&lt;/u&gt;&lt;/span&gt;" style="whiteSpace=wrap;html=1;fillColor=#ffe6cc;strokeColor=#d79b00;fontStyle=0" vertex="1" parent="1">
          <mxGeometry x="250" y="708" width="100" height="70" as="geometry" />
        </mxCell>
        <mxCell id="Ix6v9zOojB1Yn2aA4ddo-2" value="&lt;i&gt;Multi-valued &lt;br&gt;Race Relation &lt;br&gt;(Relation M):&lt;/i&gt;" style="text;html=1;align=left;verticalAlign=middle;resizable=0;points=[];autosize=1;strokeColor=none;fillColor=none;" vertex="1" parent="1">
          <mxGeometry x="10" y="708" width="100" height="60" as="geometry" />
        </mxCell>
        <mxCell id="vNcmpCxSOqjynXc-dRSv-1" value="&lt;span&gt;&lt;u&gt;PID&lt;/u&gt;&lt;/span&gt;&amp;nbsp;&lt;br&gt;&lt;i&gt;&lt;font style=&quot;font-size: 10px;&quot;&gt;(primary key p of Participant Relation; foreign key here)&lt;/font&gt;&lt;/i&gt;" style="whiteSpace=wrap;html=1;fillColor=#ffe6cc;strokeColor=#d79b00;fontStyle=0" vertex="1" parent="1">
          <mxGeometry x="150" y="708" width="100" height="70" as="geometry" />
        </mxCell>
        <mxCell id="sqgQ4CNz_ZLKJuD0wi4k-11" value="" style="edgeStyle=elbowEdgeStyle;elbow=horizontal;endArrow=classic;html=1;curved=0;rounded=0;endSize=8;startSize=8;fontFamily=Helvetica;fontSize=12;fontColor=default;autosize=1;resizable=0;entryX=0;entryY=0.5;entryDx=0;entryDy=0;exitX=0;exitY=0.5;exitDx=0;exitDy=0;" edge="1" parent="1" source="vNcmpCxSOqjynXc-dRSv-1" target="zBqM1XoyQHx3GSPtkHMs-1">
          <mxGeometry width="50" height="50" relative="1" as="geometry">
            <mxPoint x="148" y="782" as="sourcePoint" />
            <mxPoint x="120" y="322" as="targetPoint" />
            <Array as="points">
              <mxPoint x="130" y="552" />
            </Array>
          </mxGeometry>
        </mxCell>
        <mxCell id="sqgQ4CNz_ZLKJuD0wi4k-12" value="" style="shape=curlyBracket;whiteSpace=wrap;html=1;rounded=1;labelPosition=left;verticalLabelPosition=middle;align=right;verticalAlign=middle;fontFamily=Helvetica;fontSize=12;fontColor=default;autosize=1;resizable=1;fillColor=none;gradientColor=none;rotation=270;movable=1;rotatable=1;deletable=1;editable=1;locked=0;connectable=1;" vertex="1" parent="1">
          <mxGeometry x="240.5" y="735.5" width="20" height="105" as="geometry" />
        </mxCell>
        <mxCell id="sqgQ4CNz_ZLKJuD0wi4k-13" value="Combination ID" style="text;html=1;align=center;verticalAlign=middle;resizable=0;points=[];autosize=1;strokeColor=none;fillColor=none;fontFamily=Helvetica;fontSize=12;fontColor=default;" vertex="1" parent="1">
          <mxGeometry x="195.5" y="792" width="110" height="30" as="geometry" />
        </mxCell>
        <mxCell id="t2E4C-6sO03QJSKhLLKr-1" value="&lt;span style=&quot;font-size: 36px;&quot;&gt;Knippenberg (u0243722) Homework 3: Logical Model&lt;/span&gt;" style="text;html=1;align=center;verticalAlign=middle;resizable=0;points=[];autosize=1;strokeColor=none;fillColor=none;fontFamily=Helvetica;fontSize=12;fontColor=default;" vertex="1" parent="1">
          <mxGeometry x="220" width="880" height="60" as="geometry" />
        </mxCell>
      </root>
    </mxGraphModel>
  </diagram>
</mxfile>
